<svg width="23" height="22" viewBox="0 0 23 22" fill="none" xmlns="http://www.w3.org/2000/svg">
<g id="Vector">
<path d="M13.4832 13L15.9832 15.5L13.4832 13ZM15.9162 17.525C15.7716 17.3893 15.6558 17.2259 15.5756 17.0446C15.4955 16.8632 15.4525 16.6676 15.4494 16.4694C15.4463 16.2711 15.483 16.0743 15.5575 15.8905C15.6319 15.7067 15.7425 15.5398 15.8827 15.3996C16.0229 15.2594 16.1899 15.1488 16.3736 15.0743C16.5574 14.9999 16.7543 14.9631 16.9525 14.9663C17.1508 14.9694 17.3464 15.0123 17.5277 15.0925C17.7091 15.1727 17.8724 15.2885 18.0082 15.433L21.0502 18.475C21.1947 18.6107 21.3105 18.7741 21.3907 18.9554C21.4709 19.1368 21.5138 19.3324 21.5169 19.5306C21.52 19.7289 21.4833 19.9257 21.4088 20.1095C21.3344 20.2933 21.2238 20.4602 21.0836 20.6004C20.9434 20.7406 20.7764 20.8512 20.5927 20.9257C20.4089 21.0001 20.212 21.0369 20.0138 21.0337C19.8155 21.0306 19.6199 20.9877 19.4386 20.9075C19.2573 20.8273 19.0939 20.7115 18.9582 20.567L15.9162 17.525ZM15.4832 8C15.4832 6.14348 14.7457 4.36301 13.4329 3.05025C12.1201 1.7375 10.3397 1 8.48315 1C6.62664 1 4.84616 1.7375 3.53341 3.05025C2.22065 4.36301 1.48315 6.14348 1.48315 8C1.48315 9.85652 2.22065 11.637 3.53341 12.9497C4.84616 14.2625 6.62664 15 8.48315 15C10.3397 15 12.1201 14.2625 13.4329 12.9497C14.7457 11.637 15.4832 9.85652 15.4832 8Z" fill="#888888"/>
<path d="M13.4832 13L15.9832 15.5M15.9162 17.525C15.7716 17.3893 15.6558 17.2259 15.5756 17.0446C15.4955 16.8632 15.4525 16.6676 15.4494 16.4694C15.4463 16.2711 15.483 16.0743 15.5575 15.8905C15.6319 15.7067 15.7425 15.5398 15.8827 15.3996C16.0229 15.2594 16.1899 15.1488 16.3736 15.0743C16.5574 14.9999 16.7543 14.9631 16.9525 14.9663C17.1508 14.9694 17.3464 15.0123 17.5277 15.0925C17.7091 15.1727 17.8724 15.2885 18.0082 15.433L21.0502 18.475C21.1947 18.6107 21.3105 18.7741 21.3907 18.9554C21.4709 19.1368 21.5138 19.3324 21.5169 19.5306C21.52 19.7289 21.4833 19.9257 21.4088 20.1095C21.3344 20.2933 21.2238 20.4602 21.0836 20.6004C20.9434 20.7406 20.7765 20.8512 20.5927 20.9257C20.4089 21.0001 20.212 21.0369 20.0138 21.0337C19.8155 21.0306 19.6199 20.9877 19.4386 20.9075C19.2573 20.8273 19.0939 20.7115 18.9582 20.567L15.9162 17.525ZM15.4832 8C15.4832 6.14348 14.7457 4.36301 13.4329 3.05025C12.1201 1.7375 10.3397 1 8.48315 1C6.62664 1 4.84616 1.7375 3.53341 3.05025C2.22065 4.36301 1.48315 6.14348 1.48315 8C1.48315 9.85652 2.22065 11.637 3.53341 12.9497C4.84616 14.2625 6.62664 15 8.48315 15C10.3397 15 12.1201 14.2625 13.4329 12.9497C14.7457 11.637 15.4832 9.85652 15.4832 8Z" stroke="#888888" stroke-width="1.5" stroke-linecap="round" stroke-linejoin="round"/>
</g>
</svg>
