<svg width="20" height="19" viewBox="0 0 20 19" fill="none" xmlns="http://www.w3.org/2000/svg">
<g id="Compartir">
<path id="Vector" d="M6.72985 8.28394L13.2299 5.28394M6.72985 10.7839L13.2299 13.7839M19.0009 4.03394C19.0009 4.82959 18.6848 5.59265 18.1222 6.15526C17.5596 6.71787 16.7965 7.03394 16.0009 7.03394C15.2052 7.03394 14.4421 6.71787 13.8795 6.15526C13.3169 5.59265 13.0009 4.82959 13.0009 4.03394C13.0009 3.23829 13.3169 2.47522 13.8795 1.91262C14.4421 1.35001 15.2052 1.03394 16.0009 1.03394C16.7965 1.03394 17.5596 1.35001 18.1222 1.91262C18.6848 2.47522 19.0009 3.23829 19.0009 4.03394ZM7.00085 9.53394C7.00085 10.3296 6.68478 11.0926 6.12218 11.6553C5.55957 12.2179 4.7965 12.5339 4.00085 12.5339C3.20521 12.5339 2.44214 12.2179 1.87953 11.6553C1.31693 11.0926 1.00085 10.3296 1.00085 9.53394C1.00085 8.73829 1.31693 7.97522 1.87953 7.41261C2.44214 6.85001 3.20521 6.53394 4.00085 6.53394C4.7965 6.53394 5.55957 6.85001 6.12218 7.41261C6.68478 7.97522 7.00085 8.73829 7.00085 9.53394ZM19.0009 15.0339C19.0009 15.8296 18.6848 16.5926 18.1222 17.1553C17.5596 17.7179 16.7965 18.0339 16.0009 18.0339C15.2052 18.0339 14.4421 17.7179 13.8795 17.1553C13.3169 16.5926 13.0009 15.8296 13.0009 15.0339C13.0009 14.2383 13.3169 13.4752 13.8795 12.9126C14.4421 12.35 15.2052 12.0339 16.0009 12.0339C16.7965 12.0339 17.5596 12.35 18.1222 12.9126C18.6848 13.4752 19.0009 14.2383 19.0009 15.0339Z" stroke="black" stroke-width="1.5" stroke-linecap="round" stroke-linejoin="round"/>
</g>
</svg>
