<svg width="21" height="21" viewBox="0 0 21 21" fill="none" xmlns="http://www.w3.org/2000/svg">
<path d="M1 10.5339C1 6.05594 1 3.81594 2.391 2.42494C3.782 1.03394 6.021 1.03394 10.5 1.03394C14.978 1.03394 17.218 1.03394 18.609 2.42494C20 3.81594 20 6.05494 20 10.5339C20 15.0119 20 17.2519 18.609 18.6429C17.218 20.0339 14.979 20.0339 10.5 20.0339C6.022 20.0339 3.782 20.0339 2.391 18.6429C1 17.2519 1 15.0129 1 10.5339Z" stroke="white" stroke-width="1.5" stroke-linecap="round" stroke-linejoin="round"/>
<path d="M10.5029 5.573V12.623C10.8289 12.627 11.1499 12.403 11.3879 12.13L12.9779 10.347M10.5019 12.623C10.1879 12.619 9.86894 12.396 9.61694 12.129L8.01994 10.348M6.48694 15.574H14.4869" stroke="white" stroke-width="1.5" stroke-linecap="round" stroke-linejoin="round"/>
</svg>
