<svg width="22" height="19" viewBox="0 0 22 19" fill="none" xmlns="http://www.w3.org/2000/svg">
<g id="Dislike">
<path id="Vector" d="M1.00049 9.03394C1.00049 9.56437 1.2112 10.0731 1.58627 10.4481C1.96135 10.8232 2.47006 11.0339 3.00049 11.0339C3.79614 11.0339 4.5592 10.7179 5.12181 10.1553C5.68442 9.59265 6.00049 8.82959 6.00049 8.03394V4.03394C6.00049 3.23829 5.68442 2.47522 5.12181 1.91262C4.5592 1.35001 3.79614 1.03394 3.00049 1.03394C2.47006 1.03394 1.96135 1.24465 1.58627 1.61972C1.2112 1.99479 1.00049 2.5035 1.00049 3.03394V9.03394ZM14.4795 13.7279L14.2125 12.8679C13.9945 12.1629 13.8855 11.8109 13.9695 11.5319C14.0386 11.3047 14.1878 11.1104 14.3895 10.9849C14.6405 10.8269 15.0195 10.8269 15.7795 10.8269H16.1835C18.7535 10.8269 20.0385 10.8269 20.6455 10.0669C20.7148 9.9796 20.7765 9.88727 20.8305 9.78994C21.2975 8.94194 20.7665 7.79894 19.7045 5.51294C18.7305 3.41494 18.2425 2.36594 17.3385 1.74894C17.2508 1.6887 17.1607 1.63199 17.0685 1.57894C16.1165 1.03394 14.9365 1.03394 12.5765 1.03394H12.0655C9.20549 1.03394 7.77649 1.03394 6.88849 1.89394C6.00049 2.75594 6.00049 4.14094 6.00049 6.91094V7.88494C6.00049 9.33994 6.00049 10.0679 6.25849 10.7349C6.51749 11.4009 7.01149 11.9479 8.00149 13.0439L12.0925 17.5739C12.1955 17.6879 12.2465 17.7439 12.2925 17.7839C12.497 17.9603 12.7625 18.0495 13.032 18.0325C13.3016 18.0155 13.5537 17.8936 13.7345 17.6929C13.7745 17.6479 13.8175 17.5849 13.9045 17.4589C13.9949 17.3306 14.0819 17.1999 14.1655 17.0669C14.427 16.6385 14.6011 16.1626 14.6776 15.6666C14.7542 15.1705 14.7317 14.6642 14.6115 14.1769C14.5719 14.0263 14.5278 13.876 14.4795 13.7279Z" stroke="black" stroke-width="1.5" stroke-linecap="round" stroke-linejoin="round"/>
</g>
</svg>
