<svg width="19" height="22" viewBox="0 0 19 22" fill="none" xmlns="http://www.w3.org/2000/svg">
<g id="Vector">
<path d="M1.5 17.0139V8.74294C1.5 5.10894 1.5 3.29294 2.672 2.16294C3.844 1.03294 5.729 1.03394 9.5 1.03394C13.271 1.03394 15.157 1.03394 16.328 2.16294C17.5 3.29094 17.5 5.10794 17.5 8.74194V17.0149C17.5 19.3209 17.5 20.4739 16.727 20.8859C15.23 21.6859 12.423 19.0189 11.09 18.2159C10.317 17.7509 9.93 17.5179 9.5 17.5179C9.07 17.5179 8.683 17.7509 7.91 18.2159C6.577 19.0189 3.77 21.6859 2.273 20.8859C1.5 20.4739 1.5 19.3209 1.5 17.0149" fill="#888888"/>
<path d="M1.5 17.0139V8.74294C1.5 5.10894 1.5 3.29294 2.672 2.16294C3.844 1.03294 5.729 1.03394 9.5 1.03394C13.271 1.03394 15.157 1.03394 16.328 2.16294C17.5 3.29094 17.5 5.10794 17.5 8.74194V17.0149C17.5 19.3209 17.5 20.4739 16.727 20.8859C15.23 21.6859 12.423 19.0189 11.09 18.2159C10.317 17.7509 9.93 17.5179 9.5 17.5179C9.07 17.5179 8.683 17.7509 7.91 18.2159C6.577 19.0189 3.77 21.6859 2.273 20.8859C1.5 20.4739 1.5 19.3209 1.5 17.0149" stroke="#888888" stroke-width="1.5" stroke-linecap="round" stroke-linejoin="round"/>
</g>
</svg>
