<svg width="28" height="27" viewBox="0 0 28 27" fill="none" xmlns="http://www.w3.org/2000/svg">
<g id="flowbite:home-solid">
<path id="Vector" fill-rule="evenodd" clip-rule="evenodd" d="M13.2047 3.70463C13.4157 3.49372 13.7018 3.37524 14.0001 3.37524C14.2984 3.37524 14.5845 3.49372 14.7955 3.70463L21.5455 10.4546L23.7955 12.7046C24.0004 12.9168 24.1138 13.201 24.1112 13.496C24.1087 13.7909 23.9903 14.0731 23.7818 14.2817C23.5732 14.4903 23.291 14.6086 22.996 14.6111C22.7011 14.6137 22.4169 14.5003 22.2047 14.2954L21.8751 13.9658V21.375C21.8751 21.9717 21.638 22.544 21.2161 22.966C20.7941 23.388 20.2218 23.625 19.6251 23.625H16.2501C15.9517 23.625 15.6656 23.5065 15.4546 23.2955C15.2436 23.0845 15.1251 22.7984 15.1251 22.5V19.125H12.8751V22.5C12.8751 22.7984 12.7566 23.0845 12.5456 23.2955C12.3346 23.5065 12.0485 23.625 11.7501 23.625H8.37509C7.77835 23.625 7.20606 23.388 6.7841 22.966C6.36214 22.544 6.12509 21.9717 6.12509 21.375V13.9658L5.79547 14.2954C5.58329 14.5003 5.29911 14.6137 5.00414 14.6111C4.70917 14.6086 4.42701 14.4903 4.21842 14.2817C4.00984 14.0731 3.89152 13.7909 3.88896 13.496C3.8864 13.201 3.99979 12.9168 4.20472 12.7046L6.45472 10.4546L13.2047 3.70463Z" fill="#888888"/>
</g>
</svg>
