<svg width="22" height="19" viewBox="0 0 22 19" fill="none" xmlns="http://www.w3.org/2000/svg">
<g id="Like">
<path id="Vector" d="M1 10.0335C1 9.50311 1.21071 8.9944 1.58579 8.61933C1.96086 8.24426 2.46957 8.03354 3 8.03354C3.79565 8.03354 4.55871 8.34961 5.12132 8.91222C5.68393 9.47483 6 10.2379 6 11.0335V15.0335C6 15.8292 5.68393 16.5923 5.12132 17.1549C4.55871 17.7175 3.79565 18.0335 3 18.0335C2.46957 18.0335 1.96086 17.8228 1.58579 17.4478C1.21071 17.0727 1 16.564 1 16.0335V10.0335ZM14.479 5.33954L14.212 6.19954C13.994 6.90454 13.885 7.25654 13.969 7.53554C14.0397 7.76191 14.1886 7.95578 14.389 8.08254C14.64 8.24054 15.019 8.24054 15.779 8.24054H16.183C18.753 8.24054 20.038 8.24054 20.645 9.00054C20.7143 9.08788 20.776 9.18021 20.83 9.27754C21.297 10.1255 20.766 11.2685 19.704 13.5545C18.73 15.6525 18.242 16.7015 17.338 17.3185C17.25 17.3785 17.16 17.4352 17.068 17.4885C16.116 18.0335 14.936 18.0335 12.576 18.0335H12.065C9.205 18.0335 7.776 18.0335 6.888 17.1735C6 16.3125 6 14.9275 6 12.1575V11.1835C6 9.72854 6 9.00054 6.258 8.33354C6.517 7.66754 7.011 7.12054 8.001 6.02454L12.092 1.49454C12.195 1.38054 12.246 1.32454 12.292 1.28454C12.4965 1.1082 12.762 1.01898 13.0316 1.03599C13.3011 1.053 13.5532 1.17489 13.734 1.37554C13.774 1.42054 13.817 1.48354 13.904 1.60954C14.039 1.80554 14.106 1.90354 14.165 2.00154C14.693 2.87254 14.852 3.90754 14.611 4.89154C14.584 5.00054 14.549 5.11354 14.479 5.33954Z" stroke="black" stroke-width="1.5" stroke-linecap="round" stroke-linejoin="round"/>
</g>
</svg>
