<svg width="22" height="22" viewBox="0 0 22 22" fill="none" xmlns="http://www.w3.org/2000/svg">
<path d="M13 13L15.5 15.5M15.433 17.525C15.2885 17.3893 15.1727 17.2259 15.0925 17.0446C15.0123 16.8632 14.9694 16.6676 14.9663 16.4694C14.9631 16.2711 14.9999 16.0743 15.0743 15.8905C15.1488 15.7067 15.2594 15.5398 15.3996 15.3996C15.5398 15.2594 15.7067 15.1488 15.8905 15.0743C16.0743 14.9999 16.2711 14.9631 16.4694 14.9663C16.6676 14.9694 16.8632 15.0123 17.0446 15.0925C17.2259 15.1727 17.3893 15.2885 17.525 15.433L20.567 18.475C20.7115 18.6107 20.8273 18.7741 20.9075 18.9554C20.9877 19.1368 21.0306 19.3324 21.0337 19.5306C21.0369 19.7289 21.0001 19.9257 20.9257 20.1095C20.8512 20.2933 20.7406 20.4602 20.6004 20.6004C20.4602 20.7406 20.2933 20.8512 20.1095 20.9257C19.9257 21.0001 19.7289 21.0369 19.5306 21.0337C19.3324 21.0306 19.1368 20.9877 18.9554 20.9075C18.7741 20.8273 18.6107 20.7115 18.475 20.567L15.433 17.525ZM15 8C15 6.14348 14.2625 4.36301 12.9497 3.05025C11.637 1.7375 9.85652 1 8 1C6.14348 1 4.36301 1.7375 3.05025 3.05025C1.7375 4.36301 1 6.14348 1 8C1 9.85652 1.7375 11.637 3.05025 12.9497C4.36301 14.2625 6.14348 15 8 15C9.85652 15 11.637 14.2625 12.9497 12.9497C14.2625 11.637 15 9.85652 15 8Z" stroke="#4CA0FA" stroke-width="1.5" stroke-linecap="round" stroke-linejoin="round"/>
</svg>
