<svg width="53" height="48" viewBox="0 0 53 48" fill="none" xmlns="http://www.w3.org/2000/svg">
<path id="Vector" d="M40.705 38.6667C46.1241 38.058 50.3389 33.3842 50.3389 27.7131C50.3389 21.6264 45.4858 16.6936 39.5008 16.6936H39.4478C39.4815 16.2894 39.4992 15.882 39.5008 15.4713C39.5027 13.704 39.1615 11.9535 38.4968 10.32C37.8321 8.68647 36.8569 7.20183 35.6268 5.95087C34.3967 4.69991 32.9359 3.70713 31.3277 3.02924C29.7195 2.35134 27.9955 2.0016 26.2542 2C22.9369 2.00284 19.7412 3.26766 17.2978 5.54484C14.8544 7.82201 13.3408 10.9461 13.0557 14.3004M13.0557 14.3004C10.0734 14.5957 7.30617 16.0076 5.29359 18.2608C3.281 20.514 2.16725 23.4472 2.16944 26.4884C2.16785 29.309 3.12559 32.0437 4.88086 34.2305C6.63613 36.4172 9.08132 37.922 11.8033 38.4907M13.0557 14.3004C13.4363 14.263 13.8216 14.2442 14.2118 14.2442C16.9238 14.2442 19.4262 15.156 21.4372 16.6936M39.4478 16.696C39.2077 19.3926 38.171 21.9529 36.4733 24.0416M26.2542 26.4444V46M26.2542 26.4444C24.5682 26.4444 21.418 31.3187 20.233 32.5556M26.2542 26.4444C27.9401 26.4444 31.0904 31.3187 32.2754 32.5556" stroke="#4CA0FA" stroke-width="4" stroke-linecap="round" stroke-linejoin="round"/>
</svg>
