<svg width="21" height="22" viewBox="0 0 21 22" fill="none" xmlns="http://www.w3.org/2000/svg">
<path id="Vector" d="M5.07796 14.482C3.66296 15.324 -0.0470383 17.044 2.21296 19.197C3.31596 20.248 4.54496 21 6.08996 21H14.908C16.454 21 17.683 20.248 18.786 19.197C21.046 17.044 17.336 15.324 15.921 14.482C14.2788 13.5119 12.4063 13.0001 10.499 13.0001C8.5916 13.0001 6.72017 13.5119 5.07796 14.482ZM15 5.5C15 6.69347 14.5259 7.83807 13.6819 8.68198C12.838 9.52589 11.6934 10 10.5 10C9.30649 10 8.16189 9.52589 7.31798 8.68198C6.47407 7.83807 5.99996 6.69347 5.99996 5.5C5.99996 4.30653 6.47407 3.16193 7.31798 2.31802C8.16189 1.47411 9.30649 1 10.5 1C11.6934 1 12.838 1.47411 13.6819 2.31802C14.5259 3.16193 15 4.30653 15 5.5Z" fill="#888888" stroke="#888888" stroke-width="1.5" stroke-linecap="round" stroke-linejoin="round"/>
</svg>
