<svg width="21" height="21" viewBox="0 0 21 21" fill="none" xmlns="http://www.w3.org/2000/svg">
<g id="Vector">
<path d="M10.5 6.53394V14.5339V6.53394ZM14.5 10.5339H6.5H14.5ZM1 10.5339C1 6.05594 1 3.81594 2.391 2.42494C3.782 1.03394 6.021 1.03394 10.5 1.03394C14.978 1.03394 17.218 1.03394 18.609 2.42494C20 3.81594 20 6.05494 20 10.5339C20 15.0119 20 17.2519 18.609 18.6429C17.218 20.0339 14.979 20.0339 10.5 20.0339C6.022 20.0339 3.782 20.0339 2.391 18.6429C1 17.2519 1 15.0129 1 10.5339Z" fill="#888888"/>
<path d="M10.5 6.53394V14.5339M14.5 10.5339H6.5M1 10.5339C1 6.05594 1 3.81594 2.391 2.42494C3.782 1.03394 6.021 1.03394 10.5 1.03394C14.978 1.03394 17.218 1.03394 18.609 2.42494C20 3.81594 20 6.05494 20 10.5339C20 15.0119 20 17.2519 18.609 18.6429C17.218 20.0339 14.979 20.0339 10.5 20.0339C6.022 20.0339 3.782 20.0339 2.391 18.6429C1 17.2519 1 15.0129 1 10.5339Z" stroke="#EDF5FF" stroke-width="1.5" stroke-linecap="round" stroke-linejoin="round"/>
</g>
</svg>
