<svg width="18" height="22" viewBox="0 0 18 22" fill="none" xmlns="http://www.w3.org/2000/svg">
<path id="Vector" d="M1 17.0139V8.74294C1 5.10894 1 3.29294 2.172 2.16294C3.344 1.03294 5.229 1.03394 9 1.03394C12.771 1.03394 14.657 1.03394 15.828 2.16294C17 3.29094 17 5.10794 17 8.74194V17.0149C17 19.3209 17 20.4739 16.227 20.8859C14.73 21.6859 11.923 19.0189 10.59 18.2159C9.817 17.7509 9.43 17.5179 9 17.5179C8.57 17.5179 8.183 17.7509 7.41 18.2159C6.077 19.0189 3.27 21.6859 1.773 20.8859C1 20.4739 1 19.3209 1 17.0149" stroke="black" stroke-width="1.5" stroke-linecap="round" stroke-linejoin="round"/>
</svg>
